# xmcd CD database file
#
# Track frame offsets:
#	150
#	16563
#	45190
#	64111
#	85660
#	103856
#	126664
#	145844
#	167190
#	188165
#
# Disc length: 2769 seconds
#
# Revision: 5
# Processed by: cddbd v1.5.2PL0 Copyright (c) Steve Scherf et al.
# Submitted via: CDex 1.70beta2
#
DISCID=7e0acf0a
DTITLE=Tribe After Tribe - Enchanted Entrance
DYEAR=2002
DGENRE=Rock
TTITLE0=100 000
TTITLE1=Loud And Clear
TTITLE2=Island
TTITLE3=Tunguska
TTITLE4=Eloise
TTITLE5=Merry Round Ago
TTITLE6=Drowning Pieces
TTITLE7=Tabla Rosa
TTITLE8=Burn
TTITLE9=War Sheik
EXTD=YEAR: 2002
EXTT0=
EXTT1=
EXTT2=
EXTT3=
EXTT4=
EXTT5=
EXTT6=
EXTT7=
EXTT8=
EXTT9=
PLAYORDER=
